<svg width="21" height="57" viewBox="0 0 21 57" fill="none" xmlns="http://www.w3.org/2000/svg">
<g clip-path="url(#clip0_1_837)">
<path d="M1.903 6.93923C2.025 7.19323 2.302 7.56423 2.673 7.93023C3.046 8.29723 3.421 8.56823 3.677 8.68623C4.447 9.04023 4.841 9.12423 7.767 9.12423H11.486V30.9612C11.486 38.4112 11.495 43.6592 11.515 47.0962C11.525 48.8152 11.537 50.0772 11.553 50.9342C11.561 51.3632 11.569 51.6852 11.578 51.9102C11.587 52.1172 11.594 52.1892 11.592 52.1892L11.591 52.1842C11.751 52.9232 12.088 53.5302 12.679 54.1082M1.903 6.93923H1.904L2.674 2.46123M1.903 6.93923C1.16 5.38223 1.463 3.65123 2.674 2.46123M1.903 6.93923L2.674 2.46123M12.679 54.1082L11.979 54.8232M12.679 54.1082C14.275 55.6722 16.715 55.6702 18.298 54.1132C18.881 53.5392 19.218 52.9382 19.38 52.2152C19.3887 52.0386 19.3954 51.862 19.4 51.6852C19.409 51.3052 19.418 50.7682 19.426 50.0932C19.442 48.7432 19.456 46.8582 19.467 44.6132C19.489 40.1232 19.5 34.2052 19.5 28.2862C19.5 22.3662 19.489 16.4482 19.467 11.9592C19.456 9.71423 19.442 7.82923 19.426 6.47923C19.418 5.80423 19.409 5.26623 19.399 4.88623C19.3947 4.70983 19.3884 4.53348 19.38 4.35723C19.045 2.88623 17.756 1.64023 16.293 1.36723H16.289C16.276 1.36523 16.229 1.36023 16.136 1.35323C15.9894 1.34409 15.8428 1.33709 15.696 1.33223C15.2285 1.31612 14.7608 1.30512 14.293 1.29923C13.175 1.28323 11.753 1.27823 10.335 1.28323C8.916 1.28823 7.505 1.30423 6.408 1.32923C5.858 1.34123 5.393 1.35523 5.047 1.37223C4.90954 1.378 4.77219 1.386 4.635 1.39623C4.562 1.40223 4.529 1.40623 4.522 1.40723C3.799 1.58323 3.26 1.88523 2.674 2.46123" stroke="#59547A" stroke-width="2"/>
</g>
<defs>
<clipPath id="clip0_1_837">
<rect width="20" height="56" fill="white" transform="translate(0.5 0.28125)"/>
</clipPath>
</defs>
</svg>
