<svg width="36" height="57" viewBox="0 0 36 57" fill="none" xmlns="http://www.w3.org/2000/svg">
<g clip-path="url(#clip0_1_849)">
<path d="M3.3 52.1763C3.699 53.4623 4.68 54.4582 6.024 54.9022C6.04098 54.9079 6.05798 54.9136 6.075 54.9193C6.683 55.1223 7.158 55.2812 15.098 55.2812C16.321 55.2812 17.721 55.2772 19.321 55.2702C22.7464 55.2537 26.1718 55.226 29.597 55.1872L30.32 55.1782L30.515 55.1753H30.588C32.784 55.1483 34.528 53.3623 34.5 51.2043C34.474 49.0623 32.713 47.3322 30.54 47.3322H30.487C25.709 47.3922 20.63 47.4302 16.497 47.4362L14.484 47.4383L15.698 45.8332C18.241 42.4662 21.838 37.6033 26.768 30.6182C30.275 25.4443 32.219 21.6783 32.565 16.7523C32.547 8.22725 25.544 1.28125 16.924 1.28125C9.46 1.28125 3.009 6.54825 1.575 13.7872C1.156 15.9042 2.545 17.9692 4.698 18.3892C6.853 18.8092 8.932 17.4152 9.352 15.2952C10.062 11.7112 13.25 9.12525 16.924 9.12525C21.067 9.12525 24.468 12.3853 24.634 16.4753L24.638 16.5543L24.628 16.6322C24.235 19.9792 22.651 22.5962 20.288 26.1022L20.282 26.1103L20.276 26.1203C13.034 36.3833 8.708 42.0002 6.384 45.0182C5.373 46.3312 4.73 47.1673 4.29 47.8013L4.291 47.8022C3.767 48.5592 2.68 50.1793 3.3 52.1763ZM3.3 52.1763L2.348 52.4712" stroke="#59547A" stroke-width="2"/>
</g>
<defs>
<clipPath id="clip0_1_849">
<rect width="35" height="56" fill="white" transform="translate(0.5 0.28125)"/>
</clipPath>
</defs>
</svg>
