<svg width="34" height="57" viewBox="0 0 34 57" fill="none" xmlns="http://www.w3.org/2000/svg">
<g clip-path="url(#clip0_1_861)">
<path d="M1.57499 42.8112L0.593994 43.0052H0.594994L1.57499 42.8112ZM1.57499 42.8112C1.15499 40.6942 2.54499 38.6283 4.70099 38.2093C6.85899 37.7893 8.93899 39.1832 9.35899 41.3032C10.065 44.8672 13.238 47.4372 16.891 47.4372C21.117 47.4372 24.568 44.0293 24.568 39.8203C24.568 35.6103 21.116 32.2033 16.891 32.2033C14.692 32.2033 12.925 30.4392 12.925 28.2812C12.925 26.1233 14.692 24.3592 16.891 24.3592C21.117 24.3592 24.568 20.9513 24.568 16.7423C24.568 12.5323 21.116 9.12525 16.891 9.12525C13.238 9.12525 10.065 11.6953 9.35899 15.2603C8.93899 17.3793 6.85899 18.7733 4.70099 18.3533C2.54499 17.9333 1.15599 15.8683 1.57499 13.7513C3.00499 6.53425 9.443 1.28125 16.891 1.28125C25.506 1.28125 32.5 8.22625 32.5 16.7412C32.5 20.9562 30.79 24.7812 28.014 27.5763L27.314 28.2812L28.014 28.9862C30.789 31.7802 32.5 35.6063 32.5 39.8203C32.5 48.3363 25.506 55.2812 16.891 55.2812C9.443 55.2812 3.00499 50.0282 1.57499 42.8112Z" stroke="#59547A" stroke-width="2"/>
</g>
<defs>
<clipPath id="clip0_1_861">
<rect width="33" height="56" fill="white" transform="translate(0.5 0.28125)"/>
</clipPath>
</defs>
</svg>
