<svg width="60" height="30" viewBox="0 0 60 30" fill="none" xmlns="http://www.w3.org/2000/svg">
<g clip-path="url(#clip0_1_853)">
<path fill-rule="evenodd" clip-rule="evenodd" d="M0.667999 15.4392C0.667999 15.174 0.773356 14.9196 0.960892 14.7321C1.14843 14.5446 1.40278 14.4392 1.668 14.4392H57.668C57.9332 14.4392 58.1876 14.5446 58.3751 14.7321C58.5626 14.9196 58.668 15.174 58.668 15.4392C58.668 15.7044 58.5626 15.9588 58.3751 16.1463C58.1876 16.3339 57.9332 16.4392 57.668 16.4392H1.668C1.40278 16.4392 1.14843 16.3339 0.960892 16.1463C0.773356 15.9588 0.667999 15.7044 0.667999 15.4392Z" fill="#59547A"/>
<path fill-rule="evenodd" clip-rule="evenodd" d="M44.176 1.94928C44.3635 1.76181 44.6178 1.65649 44.883 1.65649C45.1482 1.65649 45.4025 1.76181 45.59 1.94928L57.665 14.0243C57.8508 14.21 57.9982 14.4305 58.0988 14.6732C58.1993 14.9159 58.2511 15.1761 58.2511 15.4388C58.2511 15.7015 58.1993 15.9616 58.0988 16.2043C57.9982 16.447 57.8508 16.6676 57.665 16.8533L45.59 28.9283C45.4014 29.1104 45.1488 29.2112 44.8866 29.209C44.6244 29.2067 44.3736 29.1015 44.1882 28.9161C44.0028 28.7307 43.8976 28.4799 43.8953 28.2177C43.893 27.9555 43.9938 27.7029 44.176 27.5143L56.25 15.4393L44.176 3.36328C43.9885 3.17575 43.8832 2.92144 43.8832 2.65628C43.8832 2.39112 43.9885 2.13681 44.176 1.94928Z" fill="#59547A"/>
</g>
<defs>
<clipPath id="clip0_1_853">
<rect width="59" height="29" fill="white" transform="translate(0.5 0.78125)"/>
</clipPath>
</defs>
</svg>
