<svg width="51" height="29" viewBox="0 0 51 29" fill="none" xmlns="http://www.w3.org/2000/svg">
<g clip-path="url(#clip0_1_864)">
<path fill-rule="evenodd" clip-rule="evenodd" d="M49.808 1.64221C49.9357 1.7699 50.0371 1.92151 50.1062 2.08838C50.1754 2.25524 50.2109 2.43409 50.2109 2.61471C50.2109 2.79534 50.1754 2.97419 50.1062 3.14105C50.0371 3.30792 49.9357 3.45953 49.808 3.58721L26.475 26.9202C26.3473 27.048 26.1957 27.1493 26.0288 27.2184C25.862 27.2876 25.6831 27.3232 25.5025 27.3232C25.3219 27.3232 25.143 27.2876 24.9762 27.2184C24.8093 27.1493 24.6577 27.048 24.53 26.9202L12.864 15.2532C12.6162 14.9934 12.4798 14.647 12.4841 14.2879C12.4883 13.9289 12.6328 13.5858 12.8867 13.3319C13.1406 13.0781 13.4837 12.9335 13.8427 12.9293C14.2017 12.9251 14.5482 13.0614 14.808 13.3092L25.503 24.0032L47.863 1.64221C47.9907 1.51447 48.1423 1.41313 48.3092 1.34399C48.476 1.27484 48.6549 1.23926 48.8355 1.23926C49.0161 1.23926 49.195 1.27484 49.3618 1.34399C49.5287 1.41313 49.6803 1.51447 49.808 1.64221Z" fill="#00C26F"/>
<path fill-rule="evenodd" clip-rule="evenodd" d="M38.136 1.64223C38.2638 1.76991 38.3651 1.92152 38.4342 2.08839C38.5034 2.25525 38.539 2.4341 38.539 2.61473C38.539 2.79535 38.5034 2.9742 38.4342 3.14106C38.3651 3.30793 38.2638 3.45954 38.136 3.58723L26.47 15.2532C26.2116 15.5083 25.8628 15.6508 25.4998 15.6497C25.1367 15.6486 24.7888 15.5039 24.532 15.2472C24.2752 14.9906 24.1303 14.6427 24.129 14.2797C24.1277 13.9166 24.2701 13.5677 24.525 13.3092L36.192 1.64123C36.4498 1.38353 36.7995 1.23877 37.164 1.23877C37.5285 1.23877 37.8782 1.38453 38.136 1.64223ZM1.19201 13.3092C1.44985 13.0515 1.79947 12.9068 2.16401 12.9068C2.52855 12.9068 2.87817 13.0515 3.13601 13.3092L14.803 24.9752C14.9307 25.1029 15.032 25.2545 15.1011 25.4214C15.1703 25.5883 15.2058 25.7671 15.2058 25.9477C15.2058 26.1283 15.1703 26.3072 15.1011 26.474C15.032 26.6409 14.9307 26.7925 14.803 26.9202C14.6753 27.0479 14.5237 27.1492 14.3568 27.2184C14.19 27.2875 14.0111 27.323 13.8305 27.323C13.6499 27.323 13.4711 27.2875 13.3042 27.2184C13.1373 27.1492 12.9857 27.0479 12.858 26.9202L1.19201 15.2532C0.934311 14.9954 0.789551 14.6458 0.789551 14.2812C0.789551 13.9167 0.934311 13.5671 1.19201 13.3092Z" fill="#00C26F"/>
</g>
<defs>
<clipPath id="clip0_1_864">
<rect width="50" height="28" fill="white" transform="translate(0.5 0.28125)"/>
</clipPath>
</defs>
</svg>
